<svg width="24" height="24" viewBox="0 0 24 24" fill="none" xmlns="http://www.w3.org/2000/svg">
<path d="M8 0.25H16C20.2802 0.25 23.75 3.71979 23.75 8V16C23.75 20.2802 20.2802 23.75 16 23.75H8C3.71979 23.75 0.25 20.2802 0.25 16V8C0.25 3.71979 3.71979 0.25 8 0.25Z" fill="white"/>
<path d="M8 0.25H16C20.2802 0.25 23.75 3.71979 23.75 8V16C23.75 20.2802 20.2802 23.75 16 23.75H8C3.71979 23.75 0.25 20.2802 0.25 16V8C0.25 3.71979 3.71979 0.25 8 0.25Z" stroke="#F4F4F4" stroke-width="0.5"/>
<path d="M12.8333 18.6667H10.8333C8.63344 18.6667 7.53349 18.6667 6.85008 17.9833C6.16666 17.2998 6.16666 16.1999 6.16666 14V11.3333C6.16666 10.0763 6.16666 9.44772 6.55718 9.0572C6.9477 8.66667 7.57624 8.66667 8.83332 8.66667H14.1667C15.4237 8.66667 16.0523 8.66667 16.4428 9.0572C16.8333 9.44772 16.8333 10.0763 16.8333 11.3333V12.6667" stroke="#004AAC" stroke-linecap="round" stroke-linejoin="round"/>
<path d="M14.1667 10.3333C14.1667 7.756 12.9727 5.33333 11.5 5.33333C10.0273 5.33333 8.83334 7.756 8.83334 10.3333" stroke="#004AAC" stroke-linecap="round" stroke-linejoin="round"/>
<path d="M14.1667 16.6667H18.1667M16.1667 18.6667V14.6667" stroke="#004AAC" stroke-linecap="round" stroke-linejoin="round"/>
</svg>
