<svg width="16" height="15" viewBox="0 0 16 15" fill="none" xmlns="http://www.w3.org/2000/svg">
<path d="M7.88214 12.0706L4.18214 14.7294C3.99881 14.8706 3.79881 14.9373 3.58214 14.9294C3.36548 14.9216 3.17381 14.8627 3.00714 14.7529C2.84048 14.6431 2.71131 14.4941 2.61964 14.3059C2.52798 14.1176 2.52381 13.9137 2.60714 13.6941L4.03214 9.34118L0.407143 6.91765C0.207143 6.79216 0.0821429 6.62745 0.0321429 6.42353C-0.0178571 6.21961 -0.00952381 6.03137 0.0571429 5.85882C0.12381 5.68627 0.240476 5.53333 0.407143 5.4C0.57381 5.26667 0.773809 5.2 1.00714 5.2H5.48214L6.93214 0.682353C7.01548 0.462745 7.14464 0.294118 7.31964 0.176471C7.49464 0.0588235 7.68214 0 7.88214 0C8.08214 0 8.26964 0.0588235 8.44464 0.176471C8.61964 0.294118 8.74881 0.462745 8.83214 0.682353L10.2821 5.2H14.7571C14.9905 5.2 15.1905 5.26667 15.3571 5.4C15.5238 5.53333 15.6405 5.68627 15.7071 5.85882C15.7738 6.03137 15.7821 6.21961 15.7321 6.42353C15.6821 6.62745 15.5571 6.79216 15.3571 6.91765L11.7321 9.34118L13.1571 13.6941C13.2405 13.9137 13.2363 14.1176 13.1446 14.3059C13.053 14.4941 12.9238 14.6431 12.7571 14.7529C12.5905 14.8627 12.3988 14.9216 12.1821 14.9294C11.9655 14.9373 11.7655 14.8706 11.5821 14.7294L7.88214 12.0706Z" fill="#FFC039"/>
</svg>
